<?xml version="1.0" encoding="UTF-8" standalone="no"?>
<!DOCTYPE svg PUBLIC "-//W3C//DTD SVG 1.1//EN"
 "http://www.w3.org/Graphics/SVG/1.1/DTD/svg11.dtd">
<!-- Generated by graphviz version 2.38.0 (20140413.2041)
 -->
<!-- Title: G Pages: 1 -->
<svg width="5274pt" height="404pt"
 viewBox="0.00 0.00 5274.32 404.00" xmlns="http://www.w3.org/2000/svg" xmlns:xlink="http://www.w3.org/1999/xlink">
<g id="graph0" class="graph" transform="scale(1 1) rotate(0) translate(4 400)">
<title>G</title>
<polygon fill="white" stroke="none" points="-4,4 -4,-400 5270.32,-400 5270.32,4 -4,4"/>
<!-- hasAccessTo(apple1,attacker,[]) -->
<g id="node1" class="node"><title>hasAccessTo(apple1,attacker,[])</title>
<ellipse fill="none" stroke="black" cx="1964.24" cy="-378" rx="129.177" ry="18"/>
<text text-anchor="middle" x="1964.24" y="-374.3" font-family="Times New Roman,serif" font-size="14.00">hasAccessTo(apple1,attacker,[])</text>
</g>
<!-- knows(attacker,apple1,username,[]) -->
<g id="node2" class="node"><title>knows(attacker,apple1,username,[])</title>
<ellipse fill="none" stroke="black" cx="2122.24" cy="-306" rx="139.976" ry="18"/>
<text text-anchor="middle" x="2122.24" y="-302.3" font-family="Times New Roman,serif" font-size="14.00">knows(attacker,apple1,username,[])</text>
</g>
<!-- hasAccessTo(apple1,attacker,[])&#45;&gt;knows(attacker,apple1,username,[]) -->
<g id="edge1" class="edge"><title>hasAccessTo(apple1,attacker,[])&#45;&gt;knows(attacker,apple1,username,[])</title>
<path fill="none" stroke="#821881" stroke-width="2" d="M2001.28,-360.588C2023.58,-350.706 2052.18,-338.04 2075.96,-327.502"/>
<polygon fill="#821881" stroke="#821881" stroke-width="2" points="2077.43,-330.681 2085.15,-323.43 2074.59,-324.281 2077.43,-330.681"/>
</g>
<!-- knows(attacker,apple1,password,[]) -->
<g id="node7" class="node"><title>knows(attacker,apple1,password,[])</title>
<ellipse fill="none" stroke="black" cx="1806.24" cy="-306" rx="141.875" ry="18"/>
<text text-anchor="middle" x="1806.24" y="-302.3" font-family="Times New Roman,serif" font-size="14.00">knows(attacker,apple1,password,[])</text>
</g>
<!-- hasAccessTo(apple1,attacker,[])&#45;&gt;knows(attacker,apple1,password,[]) -->
<g id="edge6" class="edge"><title>hasAccessTo(apple1,attacker,[])&#45;&gt;knows(attacker,apple1,password,[])</title>
<path fill="none" stroke="#821881" stroke-width="2" d="M1927.19,-360.588C1904.89,-350.706 1876.3,-338.04 1852.51,-327.502"/>
<polygon fill="#821881" stroke="#821881" stroke-width="2" points="1853.88,-324.281 1843.32,-323.43 1851.05,-330.681 1853.88,-324.281"/>
</g>
<!-- knows(attacker,apple1,email,[]) -->
<g id="node3" class="node"><title>knows(attacker,apple1,email,[])</title>
<ellipse fill="none" stroke="black" cx="2389.24" cy="-234" rx="124.278" ry="18"/>
<text text-anchor="middle" x="2389.24" y="-230.3" font-family="Times New Roman,serif" font-size="14.00">knows(attacker,apple1,email,[])</text>
</g>
<!-- knows(attacker,apple1,username,[])&#45;&gt;knows(attacker,apple1,email,[]) -->
<g id="edge2" class="edge"><title>knows(attacker,apple1,username,[])&#45;&gt;knows(attacker,apple1,email,[])</title>
<path fill="none" stroke="#821881" stroke-width="2" d="M2180.83,-289.638C2222.42,-278.736 2278.34,-264.075 2321.78,-252.684"/>
<polygon fill="#821881" stroke="#821881" stroke-width="2" points="2322.91,-256.007 2331.7,-250.085 2321.14,-249.236 2322.91,-256.007"/>
</g>
<!-- vulExists(apple1,userSimEmail) -->
<g id="node6" class="node"><title>vulExists(apple1,userSimEmail)</title>
<ellipse fill="none" stroke="black" cx="2122.24" cy="-234" rx="124.578" ry="18"/>
<text text-anchor="middle" x="2122.24" y="-230.3" font-family="Times New Roman,serif" font-size="14.00">vulExists(apple1,userSimEmail)</text>
</g>
<!-- knows(attacker,apple1,username,[])&#45;&gt;vulExists(apple1,userSimEmail) -->
<g id="edge5" class="edge"><title>knows(attacker,apple1,username,[])&#45;&gt;vulExists(apple1,userSimEmail)</title>
<path fill="none" stroke="#821881" stroke-width="2" d="M2122.24,-287.697C2122.24,-279.983 2122.24,-270.712 2122.24,-262.112"/>
<polygon fill="#821881" stroke="#821881" stroke-width="2" points="2125.74,-262.104 2122.24,-252.104 2118.74,-262.104 2125.74,-262.104"/>
</g>
<!-- vulExists(facebook1,publicEmail) -->
<g id="node4" class="node"><title>vulExists(facebook1,publicEmail)</title>
<ellipse fill="none" stroke="black" cx="2659.24" cy="-162" rx="132.677" ry="18"/>
<text text-anchor="middle" x="2659.24" y="-158.3" font-family="Times New Roman,serif" font-size="14.00">vulExists(facebook1,publicEmail)</text>
</g>
<!-- knows(attacker,apple1,email,[])&#45;&gt;vulExists(facebook1,publicEmail) -->
<g id="edge3" class="edge"><title>knows(attacker,apple1,email,[])&#45;&gt;vulExists(facebook1,publicEmail)</title>
<path fill="none" stroke="#821881" stroke-width="2" d="M2447.16,-217.983C2489.22,-207.078 2546.3,-192.279 2590.65,-180.782"/>
<polygon fill="#821881" stroke="#821881" stroke-width="2" points="2591.68,-184.131 2600.48,-178.233 2589.92,-177.355 2591.68,-184.131"/>
</g>
<!-- accountConn(apple1,facebook1,email,same) -->
<g id="node5" class="node"><title>accountConn(apple1,facebook1,email,same)</title>
<ellipse fill="none" stroke="black" cx="2336.24" cy="-162" rx="172.47" ry="18"/>
<text text-anchor="middle" x="2336.24" y="-158.3" font-family="Times New Roman,serif" font-size="14.00">accountConn(apple1,facebook1,email,same)</text>
</g>
<!-- knows(attacker,apple1,email,[])&#45;&gt;accountConn(apple1,facebook1,email,same) -->
<g id="edge4" class="edge"><title>knows(attacker,apple1,email,[])&#45;&gt;accountConn(apple1,facebook1,email,same)</title>
<path fill="none" stroke="#821881" stroke-width="2" d="M2376.41,-216.055C2370.12,-207.753 2362.42,-197.584 2355.45,-188.378"/>
<polygon fill="#821881" stroke="#821881" stroke-width="2" points="2358.14,-186.135 2349.32,-180.275 2352.56,-190.361 2358.14,-186.135"/>
</g>
<!-- pwContains(apple1,[name,birthday]) -->
<g id="node8" class="node"><title>pwContains(apple1,[name,birthday])</title>
<ellipse fill="none" stroke="black" cx="1471.24" cy="-234" rx="143.775" ry="18"/>
<text text-anchor="middle" x="1471.24" y="-230.3" font-family="Times New Roman,serif" font-size="14.00">pwContains(apple1,[name,birthday])</text>
</g>
<!-- knows(attacker,apple1,password,[])&#45;&gt;pwContains(apple1,[name,birthday]) -->
<g id="edge7" class="edge"><title>knows(attacker,apple1,password,[])&#45;&gt;pwContains(apple1,[name,birthday])</title>
<path fill="none" stroke="#821881" stroke-width="2" d="M1736.01,-290.326C1682.16,-279.074 1607.79,-263.535 1551.58,-251.788"/>
<polygon fill="#821881" stroke="#821881" stroke-width="2" points="1552.16,-248.335 1541.66,-249.715 1550.73,-255.187 1552.16,-248.335"/>
</g>
<!-- knowsAll(attacker,apple1,[name,birthday],[]) -->
<g id="node9" class="node"><title>knowsAll(attacker,apple1,[name,birthday],[])</title>
<ellipse fill="none" stroke="black" cx="1806.24" cy="-234" rx="172.769" ry="18"/>
<text text-anchor="middle" x="1806.24" y="-230.3" font-family="Times New Roman,serif" font-size="14.00">knowsAll(attacker,apple1,[name,birthday],[])</text>
</g>
<!-- knows(attacker,apple1,password,[])&#45;&gt;knowsAll(attacker,apple1,[name,birthday],[]) -->
<g id="edge8" class="edge"><title>knows(attacker,apple1,password,[])&#45;&gt;knowsAll(attacker,apple1,[name,birthday],[])</title>
<path fill="none" stroke="#821881" stroke-width="2" d="M1806.24,-287.697C1806.24,-279.983 1806.24,-270.712 1806.24,-262.112"/>
<polygon fill="#821881" stroke="#821881" stroke-width="2" points="1809.74,-262.104 1806.24,-252.104 1802.74,-262.104 1809.74,-262.104"/>
</g>
<!-- knowsAll(attacker,apple1,[birthday],[]) -->
<g id="node10" class="node"><title>knowsAll(attacker,apple1,[birthday],[])</title>
<ellipse fill="none" stroke="black" cx="1806.24" cy="-162" rx="151.373" ry="18"/>
<text text-anchor="middle" x="1806.24" y="-158.3" font-family="Times New Roman,serif" font-size="14.00">knowsAll(attacker,apple1,[birthday],[])</text>
</g>
<!-- knowsAll(attacker,apple1,[name,birthday],[])&#45;&gt;knowsAll(attacker,apple1,[birthday],[]) -->
<g id="edge9" class="edge"><title>knowsAll(attacker,apple1,[name,birthday],[])&#45;&gt;knowsAll(attacker,apple1,[birthday],[])</title>
<path fill="none" stroke="#821881" stroke-width="2" d="M1806.24,-215.697C1806.24,-207.983 1806.24,-198.712 1806.24,-190.112"/>
<polygon fill="#821881" stroke="#821881" stroke-width="2" points="1809.74,-190.104 1806.24,-180.104 1802.74,-190.104 1809.74,-190.104"/>
</g>
<!-- knows(attacker,apple1,name,[]) -->
<g id="node14" class="node"><title>knows(attacker,apple1,name,[])</title>
<ellipse fill="none" stroke="black" cx="1422.24" cy="-162" rx="124.578" ry="18"/>
<text text-anchor="middle" x="1422.24" y="-158.3" font-family="Times New Roman,serif" font-size="14.00">knows(attacker,apple1,name,[])</text>
</g>
<!-- knowsAll(attacker,apple1,[name,birthday],[])&#45;&gt;knows(attacker,apple1,name,[]) -->
<g id="edge13" class="edge"><title>knowsAll(attacker,apple1,[name,birthday],[])&#45;&gt;knows(attacker,apple1,name,[])</title>
<path fill="none" stroke="#821881" stroke-width="2" d="M1724.33,-218.069C1660.25,-206.387 1571.45,-190.2 1506.72,-178.4"/>
<polygon fill="#821881" stroke="#821881" stroke-width="2" points="1507.01,-174.895 1496.54,-176.545 1505.75,-181.782 1507.01,-174.895"/>
</g>
<!-- knowsAll(attacker,apple1,[],[]) -->
<g id="node11" class="node"><title>knowsAll(attacker,apple1,[],[])</title>
<ellipse fill="none" stroke="black" cx="1620.24" cy="-90" rx="122.379" ry="18"/>
<text text-anchor="middle" x="1620.24" y="-86.3" font-family="Times New Roman,serif" font-size="14.00">knowsAll(attacker,apple1,[],[])</text>
</g>
<!-- knowsAll(attacker,apple1,[birthday],[])&#45;&gt;knowsAll(attacker,apple1,[],[]) -->
<g id="edge10" class="edge"><title>knowsAll(attacker,apple1,[birthday],[])&#45;&gt;knowsAll(attacker,apple1,[],[])</title>
<path fill="none" stroke="#821881" stroke-width="2" d="M1762.63,-144.588C1735.52,-134.386 1700.52,-121.216 1672.01,-110.485"/>
<polygon fill="#821881" stroke="#821881" stroke-width="2" points="1673.2,-107.194 1662.61,-106.947 1670.74,-113.745 1673.2,-107.194"/>
</g>
<!-- knows(attacker,apple1,birthday,[]) -->
<g id="node12" class="node"><title>knows(attacker,apple1,birthday,[])</title>
<ellipse fill="none" stroke="black" cx="1896.24" cy="-90" rx="135.676" ry="18"/>
<text text-anchor="middle" x="1896.24" y="-86.3" font-family="Times New Roman,serif" font-size="14.00">knows(attacker,apple1,birthday,[])</text>
</g>
<!-- knowsAll(attacker,apple1,[birthday],[])&#45;&gt;knows(attacker,apple1,birthday,[]) -->
<g id="edge11" class="edge"><title>knowsAll(attacker,apple1,[birthday],[])&#45;&gt;knows(attacker,apple1,birthday,[])</title>
<path fill="none" stroke="#821881" stroke-width="2" d="M1828.02,-144.055C1839.63,-135.027 1854.08,-123.792 1866.68,-113.987"/>
<polygon fill="#821881" stroke="#821881" stroke-width="2" points="1868.91,-116.691 1874.65,-107.789 1864.61,-111.166 1868.91,-116.691"/>
</g>
<!-- publicInfo(facebook1,[name,birthday,current_city,hometown,workplace,university]) -->
<g id="node13" class="node"><title>publicInfo(facebook1,[name,birthday,current_city,hometown,workplace,university])</title>
<ellipse fill="none" stroke="black" cx="1084.24" cy="-18" rx="315.444" ry="18"/>
<text text-anchor="middle" x="1084.24" y="-14.3" font-family="Times New Roman,serif" font-size="14.00">publicInfo(facebook1,[name,birthday,current_city,hometown,workplace,university])</text>
</g>
<!-- knows(attacker,apple1,birthday,[])&#45;&gt;publicInfo(facebook1,[name,birthday,current_city,hometown,workplace,university]) -->
<g id="edge12" class="edge"><title>knows(attacker,apple1,birthday,[])&#45;&gt;publicInfo(facebook1,[name,birthday,current_city,hometown,workplace,university])</title>
<path fill="none" stroke="#821881" stroke-width="2" d="M1800.36,-77.246C1783.98,-75.3853 1767.13,-73.5624 1751.24,-72 1595.33,-56.6717 1418.58,-42.7848 1286.21,-33.0745"/>
<polygon fill="#821881" stroke="#821881" stroke-width="2" points="1286.19,-29.5634 1275.96,-32.3241 1285.68,-36.5447 1286.19,-29.5634"/>
</g>
<!-- knows(attacker,apple1,name,[])&#45;&gt;publicInfo(facebook1,[name,birthday,current_city,hometown,workplace,university]) -->
<g id="edge14" class="edge"><title>knows(attacker,apple1,name,[])&#45;&gt;publicInfo(facebook1,[name,birthday,current_city,hometown,workplace,university])</title>
<path fill="none" stroke="#821881" stroke-width="2" d="M1436.5,-143.997C1451.03,-124.518 1469.11,-92.6388 1451.24,-72 1433.63,-51.6701 1388.43,-38.9648 1335.51,-31.0729"/>
<polygon fill="#821881" stroke="#821881" stroke-width="2" points="1335.94,-27.5987 1325.55,-29.6545 1334.95,-34.5288 1335.94,-27.5987"/>
</g>
<!-- publicInfo(twitter1,[name]) -->
<g id="node15" class="node"><title>publicInfo(twitter1,[name])</title>
<ellipse fill="none" stroke="black" cx="835.236" cy="-90" rx="108.581" ry="18"/>
<text text-anchor="middle" x="835.236" y="-86.3" font-family="Times New Roman,serif" font-size="14.00">publicInfo(twitter1,[name])</text>
</g>
<!-- knows(attacker,apple1,name,[])&#45;&gt;publicInfo(twitter1,[name]) -->
<g id="edge15" class="edge"><title>knows(attacker,apple1,name,[])&#45;&gt;publicInfo(twitter1,[name])</title>
<path fill="none" stroke="#141000" stroke-width="2" d="M1332.89,-149.423C1317.98,-147.561 1302.68,-145.692 1288.24,-144 1139.51,-126.576 1101.81,-126.68 953.236,-108 943.456,-106.77 933.23,-105.41 923.064,-104.01"/>
<polygon fill="#141000" stroke="#141000" stroke-width="2" points="923.324,-100.512 912.937,-102.6 922.359,-107.445 923.324,-100.512"/>
</g>
<!-- publicInfo(google1,[name]) -->
<g id="node16" class="node"><title>publicInfo(google1,[name])</title>
<ellipse fill="none" stroke="black" cx="1072.24" cy="-90" rx="110.48" ry="18"/>
<text text-anchor="middle" x="1072.24" y="-86.3" font-family="Times New Roman,serif" font-size="14.00">publicInfo(google1,[name])</text>
</g>
<!-- knows(attacker,apple1,name,[])&#45;&gt;publicInfo(google1,[name]) -->
<g id="edge16" class="edge"><title>knows(attacker,apple1,name,[])&#45;&gt;publicInfo(google1,[name])</title>
<path fill="none" stroke="#603863" stroke-width="2" d="M1352.25,-147.003C1293.48,-135.249 1209.64,-118.48 1149.03,-106.359"/>
<polygon fill="#603863" stroke="#603863" stroke-width="2" points="1149.62,-102.909 1139.13,-104.379 1148.25,-109.773 1149.62,-102.909"/>
</g>
<!-- publicInfo(microsoft1,[name]) -->
<g id="node17" class="node"><title>publicInfo(microsoft1,[name])</title>
<ellipse fill="none" stroke="black" cx="1321.24" cy="-90" rx="120.779" ry="18"/>
<text text-anchor="middle" x="1321.24" y="-86.3" font-family="Times New Roman,serif" font-size="14.00">publicInfo(microsoft1,[name])</text>
</g>
<!-- knows(attacker,apple1,name,[])&#45;&gt;publicInfo(microsoft1,[name]) -->
<g id="edge17" class="edge"><title>knows(attacker,apple1,name,[])&#45;&gt;publicInfo(microsoft1,[name])</title>
<path fill="none" stroke="#957374" stroke-width="2" d="M1398.04,-144.233C1384.9,-135.123 1368.45,-123.725 1354.16,-113.816"/>
<polygon fill="#957374" stroke="#957374" stroke-width="2" points="1355.79,-110.692 1345.58,-107.873 1351.81,-116.446 1355.79,-110.692"/>
</g>
<!-- hasAccessTo(microsoft1,attacker,[]) -->
<g id="node18" class="node"><title>hasAccessTo(microsoft1,attacker,[])</title>
<ellipse fill="none" stroke="black" cx="698.236" cy="-378" rx="144.874" ry="18"/>
<text text-anchor="middle" x="698.236" y="-374.3" font-family="Times New Roman,serif" font-size="14.00">hasAccessTo(microsoft1,attacker,[])</text>
</g>
<!-- knows(attacker,microsoft1,username,[]) -->
<g id="node19" class="node"><title>knows(attacker,microsoft1,username,[])</title>
<ellipse fill="none" stroke="black" cx="871.236" cy="-306" rx="155.173" ry="18"/>
<text text-anchor="middle" x="871.236" y="-302.3" font-family="Times New Roman,serif" font-size="14.00">knows(attacker,microsoft1,username,[])</text>
</g>
<!-- hasAccessTo(microsoft1,attacker,[])&#45;&gt;knows(attacker,microsoft1,username,[]) -->
<g id="edge18" class="edge"><title>hasAccessTo(microsoft1,attacker,[])&#45;&gt;knows(attacker,microsoft1,username,[])</title>
<path fill="none" stroke="#143502" stroke-width="2" d="M738.797,-360.588C763.435,-350.619 795.078,-337.815 821.256,-327.223"/>
<polygon fill="#143502" stroke="#143502" stroke-width="2" points="822.673,-330.426 830.63,-323.43 820.047,-323.937 822.673,-330.426"/>
</g>
<!-- knows(attacker,microsoft1,password,[]) -->
<g id="node23" class="node"><title>knows(attacker,microsoft1,password,[])</title>
<ellipse fill="none" stroke="black" cx="525.236" cy="-306" rx="157.072" ry="18"/>
<text text-anchor="middle" x="525.236" y="-302.3" font-family="Times New Roman,serif" font-size="14.00">knows(attacker,microsoft1,password,[])</text>
</g>
<!-- hasAccessTo(microsoft1,attacker,[])&#45;&gt;knows(attacker,microsoft1,password,[]) -->
<g id="edge23" class="edge"><title>hasAccessTo(microsoft1,attacker,[])&#45;&gt;knows(attacker,microsoft1,password,[])</title>
<path fill="none" stroke="#143502" stroke-width="2" d="M657.675,-360.588C633.037,-350.619 601.393,-337.815 575.216,-327.223"/>
<polygon fill="#143502" stroke="#143502" stroke-width="2" points="576.425,-323.937 565.842,-323.43 573.799,-330.426 576.425,-323.937"/>
</g>
<!-- knows(attacker,microsoft1,email,[]) -->
<g id="node20" class="node"><title>knows(attacker,microsoft1,email,[])</title>
<ellipse fill="none" stroke="black" cx="871.236" cy="-234" rx="139.976" ry="18"/>
<text text-anchor="middle" x="871.236" y="-230.3" font-family="Times New Roman,serif" font-size="14.00">knows(attacker,microsoft1,email,[])</text>
</g>
<!-- knows(attacker,microsoft1,username,[])&#45;&gt;knows(attacker,microsoft1,email,[]) -->
<g id="edge19" class="edge"><title>knows(attacker,microsoft1,username,[])&#45;&gt;knows(attacker,microsoft1,email,[])</title>
<path fill="none" stroke="#143502" stroke-width="2" d="M871.236,-287.697C871.236,-279.983 871.236,-270.712 871.236,-262.112"/>
<polygon fill="#143502" stroke="#143502" stroke-width="2" points="874.736,-262.104 871.236,-252.104 867.736,-262.104 874.736,-262.104"/>
</g>
<!-- vulExists(microsoft1,userSimEmail) -->
<g id="node22" class="node"><title>vulExists(microsoft1,userSimEmail)</title>
<ellipse fill="none" stroke="black" cx="1169.24" cy="-234" rx="140.275" ry="18"/>
<text text-anchor="middle" x="1169.24" y="-230.3" font-family="Times New Roman,serif" font-size="14.00">vulExists(microsoft1,userSimEmail)</text>
</g>
<!-- knows(attacker,microsoft1,username,[])&#45;&gt;vulExists(microsoft1,userSimEmail) -->
<g id="edge22" class="edge"><title>knows(attacker,microsoft1,username,[])&#45;&gt;vulExists(microsoft1,userSimEmail)</title>
<path fill="none" stroke="#143502" stroke-width="2" d="M936.633,-289.638C983.517,-278.625 1046.73,-263.777 1095.42,-252.338"/>
<polygon fill="#143502" stroke="#143502" stroke-width="2" points="1096.34,-255.719 1105.27,-250.025 1094.74,-248.905 1096.34,-255.719"/>
</g>
<!-- knows(attacker,microsoft1,email,[])&#45;&gt;vulExists(facebook1,publicEmail) -->
<g id="edge20" class="edge"><title>knows(attacker,microsoft1,email,[])&#45;&gt;vulExists(facebook1,publicEmail)</title>
<path fill="none" stroke="#143502" stroke-width="2" d="M966.903,-220.803C984.61,-218.91 1002.96,-217.191 1020.24,-216 1684.19,-170.233 1853.42,-227.609 2517.24,-180 2530.59,-179.042 2544.61,-177.734 2558.44,-176.265"/>
<polygon fill="#143502" stroke="#143502" stroke-width="2" points="2558.9,-179.736 2568.46,-175.17 2558.14,-172.778 2558.9,-179.736"/>
</g>
<!-- accountConn(microsoft1,facebook1,email,same) -->
<g id="node21" class="node"><title>accountConn(microsoft1,facebook1,email,same)</title>
<ellipse fill="none" stroke="black" cx="1091.24" cy="-162" rx="187.667" ry="18"/>
<text text-anchor="middle" x="1091.24" y="-158.3" font-family="Times New Roman,serif" font-size="14.00">accountConn(microsoft1,facebook1,email,same)</text>
</g>
<!-- knows(attacker,microsoft1,email,[])&#45;&gt;accountConn(microsoft1,facebook1,email,same) -->
<g id="edge21" class="edge"><title>knows(attacker,microsoft1,email,[])&#45;&gt;accountConn(microsoft1,facebook1,email,same)</title>
<path fill="none" stroke="#143502" stroke-width="2" d="M921.157,-217.116C953.35,-206.873 995.446,-193.479 1029.7,-182.579"/>
<polygon fill="#143502" stroke="#143502" stroke-width="2" points="1031.13,-185.797 1039.6,-179.429 1029.01,-179.126 1031.13,-185.797"/>
</g>
<!-- pwContains(microsoft1,[name,birthday]) -->
<g id="node24" class="node"><title>pwContains(microsoft1,[name,birthday])</title>
<ellipse fill="none" stroke="black" cx="159.236" cy="-234" rx="159.472" ry="18"/>
<text text-anchor="middle" x="159.236" y="-230.3" font-family="Times New Roman,serif" font-size="14.00">pwContains(microsoft1,[name,birthday])</text>
</g>
<!-- knows(attacker,microsoft1,password,[])&#45;&gt;pwContains(microsoft1,[name,birthday]) -->
<g id="edge24" class="edge"><title>knows(attacker,microsoft1,password,[])&#45;&gt;pwContains(microsoft1,[name,birthday])</title>
<path fill="none" stroke="#143502" stroke-width="2" d="M448.064,-290.24C389.159,-278.974 307.966,-263.446 246.663,-251.721"/>
<polygon fill="#143502" stroke="#143502" stroke-width="2" points="247.096,-248.241 236.617,-249.8 245.781,-255.116 247.096,-248.241"/>
</g>
<!-- knowsAll(attacker,microsoft1,[name,birthday],[]) -->
<g id="node25" class="node"><title>knowsAll(attacker,microsoft1,[name,birthday],[])</title>
<ellipse fill="none" stroke="black" cx="525.236" cy="-234" rx="188.467" ry="18"/>
<text text-anchor="middle" x="525.236" y="-230.3" font-family="Times New Roman,serif" font-size="14.00">knowsAll(attacker,microsoft1,[name,birthday],[])</text>
</g>
<!-- knows(attacker,microsoft1,password,[])&#45;&gt;knowsAll(attacker,microsoft1,[name,birthday],[]) -->
<g id="edge25" class="edge"><title>knows(attacker,microsoft1,password,[])&#45;&gt;knowsAll(attacker,microsoft1,[name,birthday],[])</title>
<path fill="none" stroke="#143502" stroke-width="2" d="M525.236,-287.697C525.236,-279.983 525.236,-270.712 525.236,-262.112"/>
<polygon fill="#143502" stroke="#143502" stroke-width="2" points="528.736,-262.104 525.236,-252.104 521.736,-262.104 528.736,-262.104"/>
</g>
<!-- knowsAll(attacker,microsoft1,[birthday],[]) -->
<g id="node26" class="node"><title>knowsAll(attacker,microsoft1,[birthday],[])</title>
<ellipse fill="none" stroke="black" cx="420.236" cy="-162" rx="167.07" ry="18"/>
<text text-anchor="middle" x="420.236" y="-158.3" font-family="Times New Roman,serif" font-size="14.00">knowsAll(attacker,microsoft1,[birthday],[])</text>
</g>
<!-- knowsAll(attacker,microsoft1,[name,birthday],[])&#45;&gt;knowsAll(attacker,microsoft1,[birthday],[]) -->
<g id="edge26" class="edge"><title>knowsAll(attacker,microsoft1,[name,birthday],[])&#45;&gt;knowsAll(attacker,microsoft1,[birthday],[])</title>
<path fill="none" stroke="#143502" stroke-width="2" d="M499.818,-216.055C486.12,-206.922 469.033,-195.532 454.208,-185.648"/>
<polygon fill="#143502" stroke="#143502" stroke-width="2" points="456.045,-182.666 445.783,-180.032 452.162,-188.491 456.045,-182.666"/>
</g>
<!-- knows(attacker,microsoft1,name,[]) -->
<g id="node29" class="node"><title>knows(attacker,microsoft1,name,[])</title>
<ellipse fill="none" stroke="black" cx="745.236" cy="-162" rx="140.275" ry="18"/>
<text text-anchor="middle" x="745.236" y="-158.3" font-family="Times New Roman,serif" font-size="14.00">knows(attacker,microsoft1,name,[])</text>
</g>
<!-- knowsAll(attacker,microsoft1,[name,birthday],[])&#45;&gt;knows(attacker,microsoft1,name,[]) -->
<g id="edge30" class="edge"><title>knowsAll(attacker,microsoft1,[name,birthday],[])&#45;&gt;knows(attacker,microsoft1,name,[])</title>
<path fill="none" stroke="#143502" stroke-width="2" d="M576.538,-216.676C609.127,-206.307 651.436,-192.845 685.53,-181.997"/>
<polygon fill="#143502" stroke="#143502" stroke-width="2" points="686.901,-185.234 695.369,-178.867 684.779,-178.564 686.901,-185.234"/>
</g>
<!-- knowsAll(attacker,microsoft1,[],[]) -->
<g id="node27" class="node"><title>knowsAll(attacker,microsoft1,[],[])</title>
<ellipse fill="none" stroke="black" cx="532.236" cy="-90" rx="137.576" ry="18"/>
<text text-anchor="middle" x="532.236" y="-86.3" font-family="Times New Roman,serif" font-size="14.00">knowsAll(attacker,microsoft1,[],[])</text>
</g>
<!-- knowsAll(attacker,microsoft1,[birthday],[])&#45;&gt;knowsAll(attacker,microsoft1,[],[]) -->
<g id="edge27" class="edge"><title>knowsAll(attacker,microsoft1,[birthday],[])&#45;&gt;knowsAll(attacker,microsoft1,[],[])</title>
<path fill="none" stroke="#143502" stroke-width="2" d="M447.063,-144.233C461.915,-134.951 480.565,-123.294 496.625,-113.257"/>
<polygon fill="#143502" stroke="#143502" stroke-width="2" points="498.615,-116.141 505.24,-107.873 494.905,-110.205 498.615,-116.141"/>
</g>
<!-- knows(attacker,microsoft1,birthday,[]) -->
<g id="node28" class="node"><title>knows(attacker,microsoft1,birthday,[])</title>
<ellipse fill="none" stroke="black" cx="225.236" cy="-90" rx="151.373" ry="18"/>
<text text-anchor="middle" x="225.236" y="-86.3" font-family="Times New Roman,serif" font-size="14.00">knows(attacker,microsoft1,birthday,[])</text>
</g>
<!-- knowsAll(attacker,microsoft1,[birthday],[])&#45;&gt;knows(attacker,microsoft1,birthday,[]) -->
<g id="edge28" class="edge"><title>knowsAll(attacker,microsoft1,[birthday],[])&#45;&gt;knows(attacker,microsoft1,birthday,[])</title>
<path fill="none" stroke="#143502" stroke-width="2" d="M374.517,-144.588C346.177,-134.415 309.614,-121.29 279.767,-110.575"/>
<polygon fill="#143502" stroke="#143502" stroke-width="2" points="280.926,-107.273 270.332,-107.188 278.561,-113.861 280.926,-107.273"/>
</g>
<!-- knows(attacker,microsoft1,birthday,[])&#45;&gt;publicInfo(facebook1,[name,birthday,current_city,hometown,workplace,university]) -->
<g id="edge29" class="edge"><title>knows(attacker,microsoft1,birthday,[])&#45;&gt;publicInfo(facebook1,[name,birthday,current_city,hometown,workplace,university])</title>
<path fill="none" stroke="#143502" stroke-width="2" d="M331.912,-77.213C349.71,-75.3764 367.988,-73.5698 385.236,-72 551.219,-56.893 739.652,-42.7818 879.015,-32.9243"/>
<polygon fill="#143502" stroke="#143502" stroke-width="2" points="879.656,-36.3878 889.384,-32.1922 879.163,-29.4052 879.656,-36.3878"/>
</g>
<!-- knows(attacker,microsoft1,name,[])&#45;&gt;publicInfo(facebook1,[name,birthday,current_city,hometown,workplace,university]) -->
<g id="edge32" class="edge"><title>knows(attacker,microsoft1,name,[])&#45;&gt;publicInfo(facebook1,[name,birthday,current_city,hometown,workplace,university])</title>
<path fill="none" stroke="#564154" stroke-width="2" d="M731.27,-143.973C717.047,-124.472 699.422,-92.5715 717.236,-72 734.841,-51.6701 780.045,-38.9648 832.959,-31.0729"/>
<polygon fill="#564154" stroke="#564154" stroke-width="2" points="833.517,-34.5288 842.924,-29.6545 832.531,-27.5987 833.517,-34.5288"/>
</g>
<!-- knows(attacker,microsoft1,name,[])&#45;&gt;publicInfo(twitter1,[name]) -->
<g id="edge31" class="edge"><title>knows(attacker,microsoft1,name,[])&#45;&gt;publicInfo(twitter1,[name])</title>
<path fill="none" stroke="#143502" stroke-width="2" d="M767.022,-144.055C778.63,-135.027 793.075,-123.792 805.681,-113.987"/>
<polygon fill="#143502" stroke="#143502" stroke-width="2" points="807.905,-116.691 813.65,-107.789 803.608,-111.166 807.905,-116.691"/>
</g>
<!-- knows(attacker,microsoft1,name,[])&#45;&gt;publicInfo(google1,[name]) -->
<g id="edge34" class="edge"><title>knows(attacker,microsoft1,name,[])&#45;&gt;publicInfo(google1,[name])</title>
<path fill="none" stroke="#729719" stroke-width="2" d="M814.185,-146.24C868.075,-134.704 942.845,-118.698 998.034,-106.884"/>
<polygon fill="#729719" stroke="#729719" stroke-width="2" points="999.056,-110.245 1008.1,-104.729 997.591,-103.4 999.056,-110.245"/>
</g>
<!-- knows(attacker,microsoft1,name,[])&#45;&gt;publicInfo(microsoft1,[name]) -->
<g id="edge33" class="edge"><title>knows(attacker,microsoft1,name,[])&#45;&gt;publicInfo(microsoft1,[name])</title>
<path fill="none" stroke="#475303" stroke-width="2" d="M845.8,-149.391C936.221,-138.872 1072.66,-122.798 1191.24,-108 1201.87,-106.673 1212.99,-105.259 1224.06,-103.835"/>
<polygon fill="#475303" stroke="#475303" stroke-width="2" points="1224.72,-107.278 1234.19,-102.526 1223.83,-100.335 1224.72,-107.278"/>
</g>
<!-- hasAccessTo(twitter1,attacker,[]) -->
<g id="node30" class="node"><title>hasAccessTo(twitter1,attacker,[])</title>
<ellipse fill="none" stroke="black" cx="3380.24" cy="-378" rx="131.877" ry="18"/>
<text text-anchor="middle" x="3380.24" y="-374.3" font-family="Times New Roman,serif" font-size="14.00">hasAccessTo(twitter1,attacker,[])</text>
</g>
<!-- knows(attacker,twitter1,username,[]) -->
<g id="node31" class="node"><title>knows(attacker,twitter1,username,[])</title>
<ellipse fill="none" stroke="black" cx="3065.24" cy="-306" rx="142.975" ry="18"/>
<text text-anchor="middle" x="3065.24" y="-302.3" font-family="Times New Roman,serif" font-size="14.00">knows(attacker,twitter1,username,[])</text>
</g>
<!-- hasAccessTo(twitter1,attacker,[])&#45;&gt;knows(attacker,twitter1,username,[]) -->
<g id="edge35" class="edge"><title>hasAccessTo(twitter1,attacker,[])&#45;&gt;knows(attacker,twitter1,username,[])</title>
<path fill="none" stroke="#689798" stroke-width="2" d="M3314.2,-362.326C3264.12,-351.196 3195.15,-335.871 3142.51,-324.171"/>
<polygon fill="#689798" stroke="#689798" stroke-width="2" points="3143.06,-320.709 3132.54,-321.957 3141.54,-327.543 3143.06,-320.709"/>
</g>
<!-- knows(attacker,twitter1,password,[]) -->
<g id="node35" class="node"><title>knows(attacker,twitter1,password,[])</title>
<ellipse fill="none" stroke="black" cx="3695.24" cy="-306" rx="144.075" ry="18"/>
<text text-anchor="middle" x="3695.24" y="-302.3" font-family="Times New Roman,serif" font-size="14.00">knows(attacker,twitter1,password,[])</text>
</g>
<!-- hasAccessTo(twitter1,attacker,[])&#45;&gt;knows(attacker,twitter1,password,[]) -->
<g id="edge40" class="edge"><title>hasAccessTo(twitter1,attacker,[])&#45;&gt;knows(attacker,twitter1,password,[])</title>
<path fill="none" stroke="#689798" stroke-width="2" d="M3446.27,-362.326C3496.35,-351.196 3565.32,-335.871 3617.96,-324.171"/>
<polygon fill="#689798" stroke="#689798" stroke-width="2" points="3618.93,-327.543 3627.93,-321.957 3617.41,-320.709 3618.93,-327.543"/>
</g>
<!-- knows(attacker,twitter1,email,[]) -->
<g id="node32" class="node"><title>knows(attacker,twitter1,email,[])</title>
<ellipse fill="none" stroke="black" cx="2932.24" cy="-234" rx="127.277" ry="18"/>
<text text-anchor="middle" x="2932.24" y="-230.3" font-family="Times New Roman,serif" font-size="14.00">knows(attacker,twitter1,email,[])</text>
</g>
<!-- knows(attacker,twitter1,username,[])&#45;&gt;knows(attacker,twitter1,email,[]) -->
<g id="edge36" class="edge"><title>knows(attacker,twitter1,username,[])&#45;&gt;knows(attacker,twitter1,email,[])</title>
<path fill="none" stroke="#689798" stroke-width="2" d="M3033.72,-288.411C3015.41,-278.778 2992.17,-266.544 2972.55,-256.216"/>
<polygon fill="#689798" stroke="#689798" stroke-width="2" points="2974.01,-253.03 2963.53,-251.47 2970.75,-259.225 2974.01,-253.03"/>
</g>
<!-- vulExists(twitter1,userSimEmail) -->
<g id="node34" class="node"><title>vulExists(twitter1,userSimEmail)</title>
<ellipse fill="none" stroke="black" cx="2659.24" cy="-234" rx="128.077" ry="18"/>
<text text-anchor="middle" x="2659.24" y="-230.3" font-family="Times New Roman,serif" font-size="14.00">vulExists(twitter1,userSimEmail)</text>
</g>
<!-- knows(attacker,twitter1,username,[])&#45;&gt;vulExists(twitter1,userSimEmail) -->
<g id="edge39" class="edge"><title>knows(attacker,twitter1,username,[])&#45;&gt;vulExists(twitter1,userSimEmail)</title>
<path fill="none" stroke="#689798" stroke-width="2" d="M2984.54,-291.087C2915.88,-279.249 2817.46,-262.28 2746.89,-250.112"/>
<polygon fill="#689798" stroke="#689798" stroke-width="2" points="2747.13,-246.603 2736.68,-248.353 2745.94,-253.501 2747.13,-246.603"/>
</g>
<!-- vulExists(twitter1, publicUser) -->
<g id="node38" class="node"><title>vulExists(twitter1, publicUser)</title>
<ellipse fill="none" stroke="black" cx="3198.24" cy="-234" rx="120.479" ry="18"/>
<text text-anchor="middle" x="3198.24" y="-230.3" font-family="Times New Roman,serif" font-size="14.00">vulExists(twitter1, publicUser)</text>
</g>
<!-- knows(attacker,twitter1,username,[])&#45;&gt;vulExists(twitter1, publicUser) -->
<g id="edge43" class="edge"><title>knows(attacker,twitter1,username,[])&#45;&gt;vulExists(twitter1, publicUser)</title>
<path fill="none" stroke="#257743" stroke-width="2" d="M3096.76,-288.411C3115.06,-278.778 3138.3,-266.544 3157.93,-256.216"/>
<polygon fill="#257743" stroke="#257743" stroke-width="2" points="3159.72,-259.225 3166.94,-251.47 3156.46,-253.03 3159.72,-259.225"/>
</g>
<!-- knows(attacker,twitter1,email,[])&#45;&gt;vulExists(facebook1,publicEmail) -->
<g id="edge37" class="edge"><title>knows(attacker,twitter1,email,[])&#45;&gt;vulExists(facebook1,publicEmail)</title>
<path fill="none" stroke="#689798" stroke-width="2" d="M2873.67,-217.983C2831.14,-207.078 2773.43,-192.279 2728.59,-180.782"/>
<polygon fill="#689798" stroke="#689798" stroke-width="2" points="2729.2,-177.327 2718.65,-178.233 2727.46,-184.108 2729.2,-177.327"/>
</g>
<!-- accountConn(twitter1,facebook1,email,same) -->
<g id="node33" class="node"><title>accountConn(twitter1,facebook1,email,same)</title>
<ellipse fill="none" stroke="black" cx="2984.24" cy="-162" rx="174.669" ry="18"/>
<text text-anchor="middle" x="2984.24" y="-158.3" font-family="Times New Roman,serif" font-size="14.00">accountConn(twitter1,facebook1,email,same)</text>
</g>
<!-- knows(attacker,twitter1,email,[])&#45;&gt;accountConn(twitter1,facebook1,email,same) -->
<g id="edge38" class="edge"><title>knows(attacker,twitter1,email,[])&#45;&gt;accountConn(twitter1,facebook1,email,same)</title>
<path fill="none" stroke="#689798" stroke-width="2" d="M2944.82,-216.055C2950.99,-207.753 2958.55,-197.584 2965.38,-188.378"/>
<polygon fill="#689798" stroke="#689798" stroke-width="2" points="2968.25,-190.39 2971.4,-180.275 2962.63,-186.216 2968.25,-190.39"/>
</g>
<!-- vulExists(facebook1,commonPw) -->
<g id="node36" class="node"><title>vulExists(facebook1,commonPw)</title>
<ellipse fill="none" stroke="black" cx="4136.24" cy="-234" rx="133.776" ry="18"/>
<text text-anchor="middle" x="4136.24" y="-230.3" font-family="Times New Roman,serif" font-size="14.00">vulExists(facebook1,commonPw)</text>
</g>
<!-- knows(attacker,twitter1,password,[])&#45;&gt;vulExists(facebook1,commonPw) -->
<g id="edge41" class="edge"><title>knows(attacker,twitter1,password,[])&#45;&gt;vulExists(facebook1,commonPw)</title>
<path fill="none" stroke="#689798" stroke-width="2" d="M3780.53,-291.462C3855.77,-279.518 3965.22,-262.145 4042.81,-249.829"/>
<polygon fill="#689798" stroke="#689798" stroke-width="2" points="4043.74,-253.226 4053.06,-248.202 4042.64,-246.313 4043.74,-253.226"/>
</g>
<!-- accountConn(twitter1,facebook1,password,same) -->
<g id="node37" class="node"><title>accountConn(twitter1,facebook1,password,same)</title>
<ellipse fill="none" stroke="black" cx="3529.24" cy="-234" rx="192.266" ry="18"/>
<text text-anchor="middle" x="3529.24" y="-230.3" font-family="Times New Roman,serif" font-size="14.00">accountConn(twitter1,facebook1,password,same)</text>
</g>
<!-- knows(attacker,twitter1,password,[])&#45;&gt;accountConn(twitter1,facebook1,password,same) -->
<g id="edge42" class="edge"><title>knows(attacker,twitter1,password,[])&#45;&gt;accountConn(twitter1,facebook1,password,same)</title>
<path fill="none" stroke="#689798" stroke-width="2" d="M3656.32,-288.588C3632.95,-278.734 3603.01,-266.111 3578.07,-255.592"/>
<polygon fill="#689798" stroke="#689798" stroke-width="2" points="3579.35,-252.334 3568.78,-251.673 3576.63,-258.784 3579.35,-252.334"/>
</g>
<!-- vulExists(twitter1,commonPw) -->
<g id="node39" class="node"><title>vulExists(twitter1,commonPw)</title>
<ellipse fill="none" stroke="black" cx="3862.24" cy="-234" rx="122.379" ry="18"/>
<text text-anchor="middle" x="3862.24" y="-230.3" font-family="Times New Roman,serif" font-size="14.00">vulExists(twitter1,commonPw)</text>
</g>
<!-- knows(attacker,twitter1,password,[])&#45;&gt;vulExists(twitter1,commonPw) -->
<g id="edge44" class="edge"><title>knows(attacker,twitter1,password,[])&#45;&gt;vulExists(twitter1,commonPw)</title>
<path fill="none" stroke="#257743" stroke-width="2" d="M3734.39,-288.588C3758.24,-278.591 3788.89,-265.743 3814.2,-255.134"/>
<polygon fill="#257743" stroke="#257743" stroke-width="2" points="3815.75,-258.282 3823.62,-251.188 3813.04,-251.826 3815.75,-258.282"/>
</g>
<!-- hasAccessTo(facebook1,attacker,[]) -->
<g id="node40" class="node"><title>hasAccessTo(facebook1,attacker,[])</title>
<ellipse fill="none" stroke="black" cx="4569.24" cy="-378" rx="143.775" ry="18"/>
<text text-anchor="middle" x="4569.24" y="-374.3" font-family="Times New Roman,serif" font-size="14.00">hasAccessTo(facebook1,attacker,[])</text>
</g>
<!-- knows(attacker,facebook1,username,[]) -->
<g id="node41" class="node"><title>knows(attacker,facebook1,username,[])</title>
<ellipse fill="none" stroke="black" cx="4830.24" cy="-306" rx="154.873" ry="18"/>
<text text-anchor="middle" x="4830.24" y="-302.3" font-family="Times New Roman,serif" font-size="14.00">knows(attacker,facebook1,username,[])</text>
</g>
<!-- hasAccessTo(facebook1,attacker,[])&#45;&gt;knows(attacker,facebook1,username,[]) -->
<g id="edge45" class="edge"><title>hasAccessTo(facebook1,attacker,[])&#45;&gt;knows(attacker,facebook1,username,[])</title>
<path fill="none" stroke="#129778" stroke-width="2" d="M4627.16,-361.465C4666.92,-350.8 4719.87,-336.6 4761.73,-325.373"/>
<polygon fill="#129778" stroke="#129778" stroke-width="2" points="4762.82,-328.705 4771.57,-322.734 4761.01,-321.944 4762.82,-328.705"/>
</g>
<!-- knows(attacker,facebook1,password,[]) -->
<g id="node44" class="node"><title>knows(attacker,facebook1,password,[])</title>
<ellipse fill="none" stroke="black" cx="4308.24" cy="-306" rx="155.972" ry="18"/>
<text text-anchor="middle" x="4308.24" y="-302.3" font-family="Times New Roman,serif" font-size="14.00">knows(attacker,facebook1,password,[])</text>
</g>
<!-- hasAccessTo(facebook1,attacker,[])&#45;&gt;knows(attacker,facebook1,password,[]) -->
<g id="edge51" class="edge"><title>hasAccessTo(facebook1,attacker,[])&#45;&gt;knows(attacker,facebook1,password,[])</title>
<path fill="none" stroke="#361567" stroke-width="2" d="M4511.31,-361.465C4471.55,-350.8 4418.6,-336.6 4376.74,-325.373"/>
<polygon fill="#361567" stroke="#361567" stroke-width="2" points="4377.47,-321.944 4366.9,-322.734 4375.65,-328.705 4377.47,-321.944"/>
</g>
<!-- knows(attacker,facebook1,email,[]) -->
<g id="node42" class="node"><title>knows(attacker,facebook1,email,[])</title>
<ellipse fill="none" stroke="black" cx="5127.24" cy="-234" rx="139.175" ry="18"/>
<text text-anchor="middle" x="5127.24" y="-230.3" font-family="Times New Roman,serif" font-size="14.00">knows(attacker,facebook1,email,[])</text>
</g>
<!-- knows(attacker,facebook1,username,[])&#45;&gt;knows(attacker,facebook1,email,[]) -->
<g id="edge46" class="edge"><title>knows(attacker,facebook1,username,[])&#45;&gt;knows(attacker,facebook1,email,[])</title>
<path fill="none" stroke="#129778" stroke-width="2" d="M4895.41,-289.638C4942.14,-278.625 5005.14,-263.777 5053.67,-252.338"/>
<polygon fill="#129778" stroke="#129778" stroke-width="2" points="5054.56,-255.726 5063.49,-250.025 5052.95,-248.913 5054.56,-255.726"/>
</g>
<!-- vulExists(facebook1,userSimEmail) -->
<g id="node43" class="node"><title>vulExists(facebook1,userSimEmail)</title>
<ellipse fill="none" stroke="black" cx="4830.24" cy="-234" rx="139.976" ry="18"/>
<text text-anchor="middle" x="4830.24" y="-230.3" font-family="Times New Roman,serif" font-size="14.00">vulExists(facebook1,userSimEmail)</text>
</g>
<!-- knows(attacker,facebook1,username,[])&#45;&gt;vulExists(facebook1,userSimEmail) -->
<g id="edge48" class="edge"><title>knows(attacker,facebook1,username,[])&#45;&gt;vulExists(facebook1,userSimEmail)</title>
<path fill="none" stroke="#129778" stroke-width="2" d="M4830.24,-287.697C4830.24,-279.983 4830.24,-270.712 4830.24,-262.112"/>
<polygon fill="#129778" stroke="#129778" stroke-width="2" points="4833.74,-262.104 4830.24,-252.104 4826.74,-262.104 4833.74,-262.104"/>
</g>
<!-- knows(attacker,facebook1,email,[])&#45;&gt;vulExists(facebook1,publicEmail) -->
<g id="edge47" class="edge"><title>knows(attacker,facebook1,email,[])&#45;&gt;vulExists(facebook1,publicEmail)</title>
<path fill="none" stroke="#129778" stroke-width="2" d="M5032.62,-220.737C5014.91,-218.838 4996.53,-217.133 4979.24,-216 4012.73,-152.66 3766.56,-246.058 2800.24,-180 2786.97,-179.093 2773.04,-177.815 2759.32,-176.361"/>
<polygon fill="#129778" stroke="#129778" stroke-width="2" points="2759.69,-172.881 2749.37,-175.274 2758.93,-179.839 2759.69,-172.881"/>
</g>
<!-- knows(attacker,facebook1,password,[])&#45;&gt;vulExists(facebook1,commonPw) -->
<g id="edge52" class="edge"><title>knows(attacker,facebook1,password,[])&#45;&gt;vulExists(facebook1,commonPw)</title>
<path fill="none" stroke="#361567" stroke-width="2" d="M4267.91,-288.588C4243.24,-278.547 4211.5,-265.63 4185.36,-254.994"/>
<polygon fill="#361567" stroke="#361567" stroke-width="2" points="4186.59,-251.716 4176.01,-251.188 4183.96,-258.2 4186.59,-251.716"/>
</g>
<!-- knows(attacker,facebook1,password,[])&#45;&gt;vulExists(twitter1,commonPw) -->
<g id="edge49" class="edge"><title>knows(attacker,facebook1,password,[])&#45;&gt;vulExists(twitter1,commonPw)</title>
<path fill="none" stroke="#129778" stroke-width="2" d="M4219.85,-291.128C4142.57,-278.998 4030.81,-261.457 3952.86,-249.224"/>
<polygon fill="#129778" stroke="#129778" stroke-width="2" points="3953,-245.702 3942.57,-247.609 3951.91,-252.617 3953,-245.702"/>
</g>
<!-- accountConn(facebook1,twitter1,password,same) -->
<g id="node45" class="node"><title>accountConn(facebook1,twitter1,password,same)</title>
<ellipse fill="none" stroke="black" cx="4480.24" cy="-234" rx="192.266" ry="18"/>
<text text-anchor="middle" x="4480.24" y="-230.3" font-family="Times New Roman,serif" font-size="14.00">accountConn(facebook1,twitter1,password,same)</text>
</g>
<!-- knows(attacker,facebook1,password,[])&#45;&gt;accountConn(facebook1,twitter1,password,same) -->
<g id="edge50" class="edge"><title>knows(attacker,facebook1,password,[])&#45;&gt;accountConn(facebook1,twitter1,password,same)</title>
<path fill="none" stroke="#129778" stroke-width="2" d="M4348.56,-288.588C4372.88,-278.691 4404.06,-266 4429.98,-255.453"/>
<polygon fill="#129778" stroke="#129778" stroke-width="2" points="4431.32,-258.685 4439.27,-251.673 4428.69,-252.201 4431.32,-258.685"/>
</g>
</g>
</svg>
